<svg xmlns="http://www.w3.org/2000/svg"
     viewBox="0 0 1271.12 1023.26">
    <defs>
        <style>.a{fill:#fff;}</style>
    </defs>
    <path class="a"
          d="M646.06.36c4.22,1.82,6.65,8.2,8,10.81Q692.49,87.1,731,163q43.57,86,87.15,172c1.07,2.09,1.89,4.36,3.56,6.18,2.19-.47,3.8-1.73,5.52-2.72q69.22-39.89,138.43-79.81l74-42.65c1.12-.64,2.21-1.33,3.37-1.87a8.1,8.1,0,0,1,9.64,1.51c2.51,2.58,2.95,5.41,1.29,9.11-.82,1.84-1.79,3.62-2.71,5.41L911.13,502.61c-1.26,2.44-2.48,4.9-3.85,7.62,1,1.91,1.93,3.87,2.92,5.82L1016.94,726.3l35.17,69.26c1,2,2.06,3.88,2.06,6.2a7.25,7.25,0,0,1-9.38,7.11,21.62,21.62,0,0,1-4.41-2.2q-60.87-35.07-121.72-70.18-46.29-26.72-92.59-53.42c-1.57-.9-3.2-1.69-4.7-2.49-1.93,1.23-2.39,3.1-3.19,4.69q-24.85,49.17-49.64,98.36Q710.6,898.5,652.72,1013.37a34.9,34.9,0,0,1-5.39,7.68c-4,4.65-7.73.92-9.5-1.79s-5.52-10.55-7-13.39q-20.5-40.56-40.9-81.18Q529.91,805.35,469.85,686c-.9-1.78-1.86-3.53-2.75-5.22-2.49,0-4,1.49-5.71,2.48q-47.33,27.68-94.61,55.42l-115.53,67.7c-1.42.83-2.87,1.64-4.33,2.39a8.78,8.78,0,0,1-5.91.71,6.75,6.75,0,0,1-5.24-8.76,29.37,29.37,0,0,1,2-4.51q52.83-105.71,105.68-211.39l34-68c.9-1.8,1.78-3.62,2.88-5.83-.85-1.76-1.76-3.74-2.74-5.68Q325.8,402.17,274,299.05L237.6,226.69a49.49,49.49,0,0,1-2.16-4.46c-1-2.75-.9-5.45,1.11-7.75a8,8,0,0,1,8.64-2,33.93,33.93,0,0,1,4.34,2.38L414.26,312l46.54,27.4c1.57.92,3.17,1.8,4.74,2.69,2-1.3,2.46-3.36,3.35-5.11q28.77-57.06,57.48-114.16Q579.62,117,632.89,11.2c1.51-3,3.39-9.46,8.76-10.84A7,7,0,0,1,646.06.36ZM808.31,673.55c-2.7-1.57-4.75-2.78-6.81-4l-81.36-46.4Q688.07,604.91,656,586.64c-1.69-.95-3.2-2.48-5.39-2.32-.72,5-1.81,389.18-1.12,399.1,0,.23.46.43,1,.91.27-.43.6-.85.84-1.32Q729.71,828.53,808.31,673.55ZM650.75,438.15c2.73.18,4.11-1.17,5.64-2q26.07-14.88,52.09-29.82,47.07-27,94.12-54c1.85-1.06,4-1.78,5.37-3.78-.93-1.92-1.79-3.73-2.7-5.52L663.81,63.49q-5-9.83-10-19.64c-.38-.75-.62-1.79-2.23-1.43Q651.18,240,650.75,438.15Zm-16.68,1.73a7.05,7.05,0,0,0,.6-1.74q.29-197.22.52-394.46c0-.27-.35-.54-.53-.8-.18,0-.37-.06-.51,0a1,1,0,0,0-.35.42c-.45.8-.9,1.59-1.32,2.41L480.78,347.86a1.38,1.38,0,0,0-.09.53,3.49,3.49,0,0,0,.12.54c3.25,2.68,139.72,84.18,151.22,90.28A12.52,12.52,0,0,0,634.07,439.88ZM480.41,672.3c.89,1.92,1.68,3.74,2.57,5.51,46.72,93,140.19,279.09,140.19,279.09s9,25,10.63,24.63c.05-1.92.14-3.88.15-5.85.26-126.2.51-258.84.76-385,0-1.84.07-3.68,0-5.51a17.12,17.12,0,0,0-.79-2.9q-76.27,44.46-151.66,88.52A13.87,13.87,0,0,0,480.41,672.3Zm333.94-13.1a9.89,9.89,0,0,0,1.5-1.59q34.8-68.46,69.56-136.94a5.16,5.16,0,0,0,.28-1.49c-.38-.28-.65-.67-.93-.67q-115.66-.51-231.32-1a27.25,27.25,0,0,0-2.78.28,13.36,13.36,0,0,0-.48,2.3c0,14.85,0,29.7,0,44.81ZM651.09,501.61c2.34.87,4.55.54,6.7.55q110.78.38,221.56.7c1.28,0,2.57.06,3.85,0a30.23,30.23,0,0,0,3-.52c-1-2.07-1.64-3.72-2.45-5.3q-18.45-36.36-36.92-72.69Q832,395.12,817.09,365.92c-.7-1.39-.89-3.31-3.18-3.76l-163.2,94.11c0,14.36,0,28.49,0,42.62A21.2,21.2,0,0,0,651.09,501.61ZM401.7,516.76c1.9,6,52.3,107.69,68.7,138.8.49.94,1.14,1.8,1.81,2.84,1.33-.69,2.48-1.21,3.57-1.85q16.19-9.42,32.34-18.88,60.4-35.26,120.79-70.56c1.71-1,3.71-1.67,5-3.71.24-14.49.49-29.17.7-43.85a6,6,0,0,0-.62-1.69,23.31,23.31,0,0,0-2.63-.32C554.94,517.27,478.57,517,401.7,516.76Zm3.07-14.6H626.7c1.47,0,2.94,0,4.41,0,1-.05,2.07-.26,3-.39.84-4.84.88-38.42.12-43.14-4.25-3.16-156.4-92.42-160.66-94.21a6.8,6.8,0,0,0-.92,1.19q-33.78,67.14-67.51,134.3A10.11,10.11,0,0,0,404.77,502.16ZM1026.93,241c-2.06.27-3.6,1.59-5.26,2.55Q954.31,282.21,887,320.9q-26.51,15.21-53,30.45c-1.68,1-3.74,1.57-4.74,3.74q34.56,68.58,69.17,137.16c.13.26.53.39.94.68a12.46,12.46,0,0,0,1.28-1.73q63.27-124.43,126.49-248.88C1027.24,242.08,1027,241.67,1026.93,241Zm-128.1,288.2c-23.43,46.59-46.6,92.61-69.69,138.66,1.7,2,3.81,2.81,5.69,3.89Q905,712.11,975.24,752.38l48.25,27.67c1.5.86,1.5.85,3.76,1C1025.09,775.52,901.81,533.48,898.83,529.22ZM459.17,666.46c-.92-1.93-1.67-3.59-2.48-5.21q-17.6-35.22-35.2-70.42-14.52-29.05-29.07-58.1c-.66-1.31-.89-3.16-3-3.73-1,1.93-1.93,3.7-2.83,5.5L295.3,716.59Q280.12,746.85,265,777.12c-.66,1.33-2,2.63-1.33,4.51C269.08,779.09,455.33,669.46,459.17,666.46ZM263.8,240.11c-.25.46-.45.67-.4.76q62.4,124.51,124.84,249a20.48,20.48,0,0,0,1.45,2.17c.37-.17.55-.24.7-.33a1.16,1.16,0,0,0,.4-.36c.47-.78,1-1.56,1.37-2.38q33.32-66.75,66.6-133.51a1.09,1.09,0,0,0,.1-.53,2.12,2.12,0,0,0-.13-.54c-3.34-2.77-129.3-76.82-191.22-112.39C266.3,241.32,265,240.74,263.8,240.11Z"
          transform="translate(-4.44 0)"/>
    <path class="a"
          d="M4.44,509.87c.52-.1,1.35,0,1.5-.31,1.74-3.34,4.88-4.81,8.05-6.34Q76.48,473,139,442.76l97.19-47c1.16-.55,2.29-1.19,3.48-1.65a8.41,8.41,0,0,1,10.2,3.2,27.48,27.48,0,0,1,1.79,3.4q26.58,53.85,53.2,107.67a14.27,14.27,0,0,1-.13,14.09q-28.35,54.18-56.43,108.5c-.42.82-.79,1.67-1.27,2.44a7.2,7.2,0,0,1-9.11,2.89c-2-.89-3.9-2.06-5.86-3.06Q123.86,577.89,15.7,522.6c-3.92-2-7.93-3.81-10.29-7.85-.15-.26-.64-.32-1-.47Zm234.44-97.38C235.2,413.7,40.59,507.86,33.18,512c-.47.26-1,.43-1.71.74,2,2.2,3.9,2.82,5.63,3.71Q92,544.7,146.85,572.9q41.9,21.52,83.8,43.05c1.75.9,3.37,2.24,5.44,2.22,2.79-4,50.84-98.71,52.45-103.45q-24.3-50.6-48.81-101.58C239.59,412.86,239.17,412.7,238.88,412.49Z"
          transform="translate(-4.44 0)"/>
    <path class="a"
          d="M1275.56,516.48c-1.93,2.3-4.57,3.56-7.17,4.89Q1158.3,577.68,1048.21,634a33,33,0,0,1-5.54,2.39,6.53,6.53,0,0,1-7.69-2.84,34.21,34.21,0,0,1-2.12-3.85Q1004.93,575.28,977,520.88c-.42-.82-.83-1.64-1.24-2.46a6.43,6.43,0,0,1-.12-5.84c.55-1.16,1.11-2.32,1.68-3.47q26.43-53.6,52.88-107.18a46.84,46.84,0,0,1,2.27-4.4,8.19,8.19,0,0,1,10.06-3.49,36,36,0,0,1,4,1.82L1268.9,504.12c2.47,1.2,5,2.29,6.66,4.64ZM1044.19,618.69c2.31-1.15,4.12-2,5.9-3l162.12-83.35q16.65-8.57,33.3-17.14c1-.54,2.59-.73,2.43-2.89Q1146.57,462.76,1044.86,413a10.08,10.08,0,0,0-2-.54c-1.79,1.44-2.34,3.45-3.21,5.23q-22.8,46.17-45.52,92.37l-1.71,3.46a3.91,3.91,0,0,0,0,3.7c.41.82.81,1.65,1.22,2.47Q1017.8,567.32,1042,615C1042.55,616.07,1043.25,617.12,1044.19,618.69Z"
          transform="translate(-4.44 0)"/>
</svg>